<mxfile host="app.diagrams.net" agent="Mozilla/5.0 (Windows NT 10.0; Win64; x64) AppleWebKit/537.36 (KHTML, like Gecko) Chrome/129.0.0.0 Safari/537.36 Edg/129.0.0.0" version="24.7.16">
  <diagram name="PÃ¡gina-1" id="vrPS4DHkUxQbU-zEVjUs">
    <mxGraphModel dx="1622" dy="881" grid="0" gridSize="10" guides="1" tooltips="1" connect="1" arrows="1" fold="1" page="1" pageScale="1" pageWidth="1169" pageHeight="827" background="#FFFFFF" math="0" shadow="1">
      <root>
        <mxCell id="0" />
        <mxCell id="1" parent="0" />
        <mxCell id="qP-1R-feA82Y-g06vh5o-49" value="" style="rounded=0;whiteSpace=wrap;html=1;" vertex="1" parent="1">
          <mxGeometry x="51" y="40" width="480" height="160" as="geometry" />
        </mxCell>
        <mxCell id="qP-1R-feA82Y-g06vh5o-50" value="Amazon Cognito" style="sketch=0;outlineConnect=0;fontColor=#232F3E;gradientColor=none;strokeColor=#ffffff;fillColor=#232F3E;dashed=0;verticalLabelPosition=middle;verticalAlign=bottom;align=center;html=1;whiteSpace=wrap;fontSize=10;fontStyle=1;spacing=3;shape=mxgraph.aws4.productIcon;prIcon=mxgraph.aws4.cognito;" vertex="1" parent="1">
          <mxGeometry x="81" y="65" width="80" height="110" as="geometry" />
        </mxCell>
        <mxCell id="qP-1R-feA82Y-g06vh5o-51" value="Amazon CloudWatch" style="sketch=0;outlineConnect=0;fontColor=#232F3E;gradientColor=none;strokeColor=#ffffff;fillColor=#232F3E;dashed=0;verticalLabelPosition=middle;verticalAlign=bottom;align=center;html=1;whiteSpace=wrap;fontSize=10;fontStyle=1;spacing=3;shape=mxgraph.aws4.productIcon;prIcon=mxgraph.aws4.cloudwatch;" vertex="1" parent="1">
          <mxGeometry x="253" y="65" width="80" height="110" as="geometry" />
        </mxCell>
        <mxCell id="qP-1R-feA82Y-g06vh5o-52" value="AWS WAF" style="sketch=0;outlineConnect=0;fontColor=#232F3E;gradientColor=none;strokeColor=#ffffff;fillColor=#232F3E;dashed=0;verticalLabelPosition=middle;verticalAlign=bottom;align=center;html=1;whiteSpace=wrap;fontSize=10;fontStyle=1;spacing=3;shape=mxgraph.aws4.productIcon;prIcon=mxgraph.aws4.waf;" vertex="1" parent="1">
          <mxGeometry x="421" y="65" width="80" height="100" as="geometry" />
        </mxCell>
        <mxCell id="qP-1R-feA82Y-g06vh5o-53" value="Seguridad y Monitoreo" style="text;html=1;align=center;verticalAlign=middle;whiteSpace=wrap;rounded=0;" vertex="1" parent="1">
          <mxGeometry x="211" y="40" width="160" height="30" as="geometry" />
        </mxCell>
        <mxCell id="qP-1R-feA82Y-g06vh5o-54" value="Token" style="text;html=1;align=center;verticalAlign=middle;whiteSpace=wrap;rounded=0;" vertex="1" parent="1">
          <mxGeometry x="114" y="246" width="60" height="30" as="geometry" />
        </mxCell>
        <mxCell id="qP-1R-feA82Y-g06vh5o-55" value="Log &amp;amp; Metrics" style="text;html=1;align=center;verticalAlign=middle;whiteSpace=wrap;rounded=0;" vertex="1" parent="1">
          <mxGeometry x="40.5" y="310" width="90" height="30" as="geometry" />
        </mxCell>
        <mxCell id="qP-1R-feA82Y-g06vh5o-56" value="Log &amp;amp; Metrics" style="text;html=1;align=center;verticalAlign=middle;whiteSpace=wrap;rounded=0;" vertex="1" parent="1">
          <mxGeometry x="206" y="290" width="90" height="30" as="geometry" />
        </mxCell>
        <mxCell id="qP-1R-feA82Y-g06vh5o-57" value="" style="rounded=0;whiteSpace=wrap;html=1;" vertex="1" parent="1">
          <mxGeometry x="91" y="343" width="320" height="257" as="geometry" />
        </mxCell>
        <mxCell id="qP-1R-feA82Y-g06vh5o-58" value="Amazon API Gateway" style="sketch=0;outlineConnect=0;fontColor=#232F3E;gradientColor=none;strokeColor=#ffffff;fillColor=#232F3E;dashed=0;verticalLabelPosition=middle;verticalAlign=bottom;align=center;html=1;whiteSpace=wrap;fontSize=10;fontStyle=1;spacing=3;shape=mxgraph.aws4.productIcon;prIcon=mxgraph.aws4.api_gateway;" vertex="1" parent="1">
          <mxGeometry x="131" y="360" width="80" height="110" as="geometry" />
        </mxCell>
        <mxCell id="qP-1R-feA82Y-g06vh5o-59" value="AWS Lambda" style="sketch=0;outlineConnect=0;fontColor=#232F3E;gradientColor=none;strokeColor=#ffffff;fillColor=#232F3E;dashed=0;verticalLabelPosition=middle;verticalAlign=bottom;align=center;html=1;whiteSpace=wrap;fontSize=10;fontStyle=1;spacing=3;shape=mxgraph.aws4.productIcon;prIcon=mxgraph.aws4.lambda;" vertex="1" parent="1">
          <mxGeometry x="251" y="500" width="80" height="100" as="geometry" />
        </mxCell>
        <mxCell id="qP-1R-feA82Y-g06vh5o-60" value="" style="rounded=0;whiteSpace=wrap;html=1;" vertex="1" parent="1">
          <mxGeometry x="51" y="680" width="200" height="130" as="geometry" />
        </mxCell>
        <mxCell id="qP-1R-feA82Y-g06vh5o-61" value="" style="sketch=0;outlineConnect=0;fontColor=#232F3E;gradientColor=none;fillColor=#7AA116;strokeColor=none;dashed=0;verticalLabelPosition=bottom;verticalAlign=top;align=center;html=1;fontSize=12;fontStyle=0;aspect=fixed;pointerEvents=1;shape=mxgraph.aws4.s3_object_lambda;" vertex="1" parent="1">
          <mxGeometry x="124.5" y="701" width="53" height="78" as="geometry" />
        </mxCell>
        <mxCell id="qP-1R-feA82Y-g06vh5o-62" value="S3 API" style="text;html=1;align=center;verticalAlign=middle;whiteSpace=wrap;rounded=0;" vertex="1" parent="1">
          <mxGeometry x="131" y="630" width="90" height="30" as="geometry" />
        </mxCell>
        <mxCell id="qP-1R-feA82Y-g06vh5o-63" value="" style="rounded=0;whiteSpace=wrap;html=1;" vertex="1" parent="1">
          <mxGeometry x="851" y="40" width="280" height="160" as="geometry" />
        </mxCell>
        <mxCell id="qP-1R-feA82Y-g06vh5o-64" value="Amazon Route 53" style="sketch=0;outlineConnect=0;fontColor=#232F3E;gradientColor=none;strokeColor=#ffffff;fillColor=#232F3E;dashed=0;verticalLabelPosition=middle;verticalAlign=bottom;align=center;html=1;whiteSpace=wrap;fontSize=10;fontStyle=1;spacing=3;shape=mxgraph.aws4.productIcon;prIcon=mxgraph.aws4.route_53;" vertex="1" parent="1">
          <mxGeometry x="891" y="70" width="80" height="110" as="geometry" />
        </mxCell>
        <mxCell id="qP-1R-feA82Y-g06vh5o-65" value="Amazon VPC" style="sketch=0;outlineConnect=0;fontColor=#232F3E;gradientColor=none;strokeColor=#ffffff;fillColor=#232F3E;dashed=0;verticalLabelPosition=middle;verticalAlign=bottom;align=center;html=1;whiteSpace=wrap;fontSize=10;fontStyle=1;spacing=3;shape=mxgraph.aws4.productIcon;prIcon=mxgraph.aws4.vpc;" vertex="1" parent="1">
          <mxGeometry x="993" y="70" width="80" height="100" as="geometry" />
        </mxCell>
        <mxCell id="qP-1R-feA82Y-g06vh5o-66" value="Networking" style="text;html=1;align=center;verticalAlign=middle;whiteSpace=wrap;rounded=0;" vertex="1" parent="1">
          <mxGeometry x="961" y="40" width="60" height="30" as="geometry" />
        </mxCell>
        <mxCell id="qP-1R-feA82Y-g06vh5o-67" value="" style="rounded=0;whiteSpace=wrap;html=1;" vertex="1" parent="1">
          <mxGeometry x="571" y="280" width="240" height="250" as="geometry" />
        </mxCell>
        <mxCell id="qP-1R-feA82Y-g06vh5o-68" value="Amazon Cloudfront" style="sketch=0;outlineConnect=0;fontColor=#232F3E;gradientColor=none;strokeColor=#ffffff;fillColor=#232F3E;dashed=0;verticalLabelPosition=middle;verticalAlign=bottom;align=center;html=1;whiteSpace=wrap;fontSize=10;fontStyle=1;spacing=3;shape=mxgraph.aws4.productIcon;prIcon=mxgraph.aws4.cloudfront;" vertex="1" parent="1">
          <mxGeometry x="596" y="303" width="80" height="110" as="geometry" />
        </mxCell>
        <mxCell id="qP-1R-feA82Y-g06vh5o-69" value="Amazon S3" style="sketch=0;outlineConnect=0;fontColor=#232F3E;gradientColor=none;strokeColor=#ffffff;fillColor=#232F3E;dashed=0;verticalLabelPosition=middle;verticalAlign=bottom;align=center;html=1;whiteSpace=wrap;fontSize=10;fontStyle=1;spacing=3;shape=mxgraph.aws4.productIcon;prIcon=mxgraph.aws4.s3;" vertex="1" parent="1">
          <mxGeometry x="711" y="413" width="80" height="100" as="geometry" />
        </mxCell>
        <mxCell id="qP-1R-feA82Y-g06vh5o-70" value="" style="rounded=0;whiteSpace=wrap;html=1;" vertex="1" parent="1">
          <mxGeometry x="491" y="670" width="300" height="140" as="geometry" />
        </mxCell>
        <mxCell id="qP-1R-feA82Y-g06vh5o-71" value="Amazon RDS" style="sketch=0;outlineConnect=0;fontColor=#232F3E;gradientColor=none;strokeColor=#ffffff;fillColor=#232F3E;dashed=0;verticalLabelPosition=middle;verticalAlign=bottom;align=center;html=1;whiteSpace=wrap;fontSize=10;fontStyle=1;spacing=3;shape=mxgraph.aws4.productIcon;prIcon=mxgraph.aws4.rds;" vertex="1" parent="1">
          <mxGeometry x="591" y="706" width="80" height="100" as="geometry" />
        </mxCell>
        <mxCell id="qP-1R-feA82Y-g06vh5o-72" value="SQL" style="text;html=1;align=center;verticalAlign=middle;whiteSpace=wrap;rounded=0;" vertex="1" parent="1">
          <mxGeometry x="294" y="726" width="60" height="30" as="geometry" />
        </mxCell>
        <mxCell id="qP-1R-feA82Y-g06vh5o-73" value="Base de Datos" style="text;html=1;align=center;verticalAlign=middle;whiteSpace=wrap;rounded=0;" vertex="1" parent="1">
          <mxGeometry x="591" y="670" width="90" height="30" as="geometry" />
        </mxCell>
        <mxCell id="qP-1R-feA82Y-g06vh5o-74" value="S3 Object Lambda" style="text;html=1;align=center;verticalAlign=middle;whiteSpace=wrap;rounded=0;" vertex="1" parent="1">
          <mxGeometry x="81" y="776" width="130" height="30" as="geometry" />
        </mxCell>
        <mxCell id="qP-1R-feA82Y-g06vh5o-75" value="Almacenamiento de Objetos" style="text;html=1;align=center;verticalAlign=middle;whiteSpace=wrap;rounded=0;" vertex="1" parent="1">
          <mxGeometry x="68.5" y="676" width="165" height="30" as="geometry" />
        </mxCell>
        <mxCell id="qP-1R-feA82Y-g06vh5o-76" value="Frontend" style="text;html=1;align=center;verticalAlign=middle;whiteSpace=wrap;rounded=0;" vertex="1" parent="1">
          <mxGeometry x="661" y="280" width="60" height="30" as="geometry" />
        </mxCell>
        <mxCell id="qP-1R-feA82Y-g06vh5o-77" value="Frontend" style="text;html=1;align=center;verticalAlign=middle;whiteSpace=wrap;rounded=0;strokeColor=none;strokeWidth=1;fontStyle=0" vertex="1" parent="1">
          <mxGeometry x="721" y="500" width="60" height="30" as="geometry" />
        </mxCell>
        <mxCell id="qP-1R-feA82Y-g06vh5o-78" value="HTTPS" style="text;html=1;align=center;verticalAlign=middle;whiteSpace=wrap;rounded=0;" vertex="1" parent="1">
          <mxGeometry x="351" y="387" width="60" height="30" as="geometry" />
        </mxCell>
        <mxCell id="qP-1R-feA82Y-g06vh5o-79" value="HTTPS" style="text;html=1;align=center;verticalAlign=middle;whiteSpace=wrap;rounded=0;" vertex="1" parent="1">
          <mxGeometry x="695" y="360" width="60" height="30" as="geometry" />
        </mxCell>
        <mxCell id="qP-1R-feA82Y-g06vh5o-80" value="DNS" style="text;html=1;align=center;verticalAlign=middle;whiteSpace=wrap;rounded=0;" vertex="1" parent="1">
          <mxGeometry x="877" y="290" width="60" height="30" as="geometry" />
        </mxCell>
        <mxCell id="qP-1R-feA82Y-g06vh5o-81" value="Proteger" style="text;html=1;align=center;verticalAlign=middle;whiteSpace=wrap;rounded=0;" vertex="1" parent="1">
          <mxGeometry x="465" y="211" width="60" height="30" as="geometry" />
        </mxCell>
        <mxCell id="qP-1R-feA82Y-g06vh5o-83" value="Log &amp;amp; Metrics" style="text;html=1;align=center;verticalAlign=middle;whiteSpace=wrap;rounded=0;" vertex="1" parent="1">
          <mxGeometry x="841" y="383" width="90" height="30" as="geometry" />
        </mxCell>
        <mxCell id="qP-1R-feA82Y-g06vh5o-85" value="Backend" style="text;html=1;align=center;verticalAlign=middle;whiteSpace=wrap;rounded=0;" vertex="1" parent="1">
          <mxGeometry x="221" y="343" width="60" height="30" as="geometry" />
        </mxCell>
        <mxCell id="qP-1R-feA82Y-g06vh5o-86" style="edgeStyle=none;rounded=0;orthogonalLoop=1;jettySize=auto;html=1;" edge="1" parent="1" source="qP-1R-feA82Y-g06vh5o-50" target="qP-1R-feA82Y-g06vh5o-58">
          <mxGeometry relative="1" as="geometry">
            <Array as="points">
              <mxPoint x="121" y="270" />
              <mxPoint x="171" y="270" />
            </Array>
          </mxGeometry>
        </mxCell>
        <mxCell id="qP-1R-feA82Y-g06vh5o-90" value="" style="endArrow=classic;html=1;rounded=0;" edge="1" parent="1" source="qP-1R-feA82Y-g06vh5o-59" target="qP-1R-feA82Y-g06vh5o-61">
          <mxGeometry width="50" height="50" relative="1" as="geometry">
            <mxPoint x="281" y="670" as="sourcePoint" />
            <mxPoint x="331" y="620" as="targetPoint" />
            <Array as="points">
              <mxPoint x="291" y="630" />
              <mxPoint x="151" y="630" />
            </Array>
          </mxGeometry>
        </mxCell>
        <mxCell id="qP-1R-feA82Y-g06vh5o-91" value="" style="endArrow=classic;html=1;rounded=0;exitX=0.625;exitY=1;exitDx=0;exitDy=0;exitPerimeter=0;" edge="1" parent="1" source="qP-1R-feA82Y-g06vh5o-59" target="qP-1R-feA82Y-g06vh5o-71">
          <mxGeometry width="50" height="50" relative="1" as="geometry">
            <mxPoint x="281" y="670" as="sourcePoint" />
            <mxPoint x="331" y="620" as="targetPoint" />
            <Array as="points">
              <mxPoint x="301" y="756" />
            </Array>
          </mxGeometry>
        </mxCell>
        <mxCell id="qP-1R-feA82Y-g06vh5o-92" value="" style="endArrow=classic;html=1;rounded=0;entryX=0.178;entryY=0;entryDx=0;entryDy=0;entryPerimeter=0;" edge="1" parent="1" source="qP-1R-feA82Y-g06vh5o-52" target="qP-1R-feA82Y-g06vh5o-68">
          <mxGeometry width="50" height="50" relative="1" as="geometry">
            <mxPoint x="281" y="320" as="sourcePoint" />
            <mxPoint x="611" y="300" as="targetPoint" />
            <Array as="points">
              <mxPoint x="461" y="240" />
              <mxPoint x="611" y="240" />
            </Array>
          </mxGeometry>
        </mxCell>
        <mxCell id="qP-1R-feA82Y-g06vh5o-98" value="" style="endArrow=classic;html=1;rounded=0;entryX=0.995;entryY=0.146;entryDx=0;entryDy=0;entryPerimeter=0;" edge="1" parent="1" source="qP-1R-feA82Y-g06vh5o-64" target="qP-1R-feA82Y-g06vh5o-68">
          <mxGeometry width="50" height="50" relative="1" as="geometry">
            <mxPoint x="821" y="230.0033333333334" as="sourcePoint" />
            <mxPoint x="851" y="320" as="targetPoint" />
            <Array as="points">
              <mxPoint x="931" y="320" />
            </Array>
          </mxGeometry>
        </mxCell>
        <mxCell id="qP-1R-feA82Y-g06vh5o-100" value="User" style="sketch=0;outlineConnect=0;fontColor=#232F3E;gradientColor=none;strokeColor=#232F3E;fillColor=#ffffff;dashed=0;verticalLabelPosition=bottom;verticalAlign=top;align=center;html=1;fontSize=12;fontStyle=0;aspect=fixed;shape=mxgraph.aws4.resourceIcon;resIcon=mxgraph.aws4.user;" vertex="1" parent="1">
          <mxGeometry x="661" y="65" width="60" height="60" as="geometry" />
        </mxCell>
        <mxCell id="qP-1R-feA82Y-g06vh5o-101" value="" style="endArrow=classic;startArrow=classic;html=1;rounded=0;" edge="1" parent="1" target="qP-1R-feA82Y-g06vh5o-100">
          <mxGeometry width="50" height="50" relative="1" as="geometry">
            <mxPoint x="636" y="303" as="sourcePoint" />
            <mxPoint x="691" y="128" as="targetPoint" />
            <Array as="points">
              <mxPoint x="636" y="243" />
              <mxPoint x="691" y="243" />
            </Array>
          </mxGeometry>
        </mxCell>
        <mxCell id="qP-1R-feA82Y-g06vh5o-102" value="HTTPS" style="text;html=1;align=center;verticalAlign=middle;whiteSpace=wrap;rounded=0;" vertex="1" parent="1">
          <mxGeometry x="621" y="210" width="60" height="30" as="geometry" />
        </mxCell>
        <mxCell id="qP-1R-feA82Y-g06vh5o-103" value="" style="endArrow=classic;startArrow=classic;html=1;rounded=0;exitX=1.012;exitY=0.515;exitDx=0;exitDy=0;exitPerimeter=0;" edge="1" parent="1" source="qP-1R-feA82Y-g06vh5o-68" target="qP-1R-feA82Y-g06vh5o-69">
          <mxGeometry width="50" height="50" relative="1" as="geometry">
            <mxPoint x="631" y="340" as="sourcePoint" />
            <mxPoint x="681" y="290" as="targetPoint" />
            <Array as="points">
              <mxPoint x="751" y="360" />
            </Array>
          </mxGeometry>
        </mxCell>
        <mxCell id="qP-1R-feA82Y-g06vh5o-104" value="" style="endArrow=classic;startArrow=classic;html=1;rounded=0;entryX=-0.004;entryY=0.327;entryDx=0;entryDy=0;entryPerimeter=0;" edge="1" parent="1" target="qP-1R-feA82Y-g06vh5o-68">
          <mxGeometry width="50" height="50" relative="1" as="geometry">
            <mxPoint x="211" y="410" as="sourcePoint" />
            <mxPoint x="521" y="370" as="targetPoint" />
            <Array as="points">
              <mxPoint x="291" y="410" />
              <mxPoint x="491" y="410" />
              <mxPoint x="491" y="340" />
            </Array>
          </mxGeometry>
        </mxCell>
        <mxCell id="qP-1R-feA82Y-g06vh5o-105" value="" style="endArrow=classic;startArrow=classic;html=1;rounded=0;" edge="1" parent="1" target="qP-1R-feA82Y-g06vh5o-58">
          <mxGeometry width="50" height="50" relative="1" as="geometry">
            <mxPoint x="251" y="540" as="sourcePoint" />
            <mxPoint x="251" y="480" as="targetPoint" />
            <Array as="points">
              <mxPoint x="171" y="540" />
            </Array>
          </mxGeometry>
        </mxCell>
        <mxCell id="qP-1R-feA82Y-g06vh5o-106" value="Lambda Proxy" style="text;html=1;align=center;verticalAlign=middle;whiteSpace=wrap;rounded=0;" vertex="1" parent="1">
          <mxGeometry x="151" y="535" width="87" height="30" as="geometry" />
        </mxCell>
        <mxCell id="qP-1R-feA82Y-g06vh5o-107" value="" style="endArrow=classic;html=1;rounded=0;" edge="1" parent="1" source="qP-1R-feA82Y-g06vh5o-50" target="qP-1R-feA82Y-g06vh5o-69">
          <mxGeometry width="50" height="50" relative="1" as="geometry">
            <mxPoint x="131" y="280" as="sourcePoint" />
            <mxPoint x="541" y="320" as="targetPoint" />
            <Array as="points">
              <mxPoint x="211" y="120" />
              <mxPoint x="211" y="260" />
              <mxPoint x="511" y="260" />
              <mxPoint x="511" y="463" />
            </Array>
          </mxGeometry>
        </mxCell>
        <mxCell id="qP-1R-feA82Y-g06vh5o-108" value="" style="endArrow=classic;html=1;rounded=0;entryX=0.994;entryY=0.472;entryDx=0;entryDy=0;entryPerimeter=0;" edge="1" parent="1">
          <mxGeometry width="50" height="50" relative="1" as="geometry">
            <mxPoint x="1039" y="170" as="sourcePoint" />
            <mxPoint x="669.52" y="753.2" as="targetPoint" />
            <Array as="points">
              <mxPoint x="1041" y="753" />
            </Array>
          </mxGeometry>
        </mxCell>
        <mxCell id="qP-1R-feA82Y-g06vh5o-109" value="" style="endArrow=classic;html=1;rounded=0;" edge="1" parent="1">
          <mxGeometry width="50" height="50" relative="1" as="geometry">
            <mxPoint x="1021" y="170" as="sourcePoint" />
            <mxPoint x="331" y="562.3188405797102" as="targetPoint" />
            <Array as="points">
              <mxPoint x="1021" y="562" />
            </Array>
          </mxGeometry>
        </mxCell>
        <mxCell id="qP-1R-feA82Y-g06vh5o-110" value="" style="endArrow=classic;html=1;rounded=0;entryX=1.018;entryY=0.365;entryDx=0;entryDy=0;entryPerimeter=0;dashed=1;" edge="1" parent="1" target="qP-1R-feA82Y-g06vh5o-50">
          <mxGeometry width="50" height="50" relative="1" as="geometry">
            <mxPoint x="251" y="105" as="sourcePoint" />
            <mxPoint x="-19" y="310" as="targetPoint" />
            <Array as="points" />
          </mxGeometry>
        </mxCell>
        <mxCell id="qP-1R-feA82Y-g06vh5o-111" value="" style="endArrow=classic;html=1;rounded=0;dashed=1;entryX=0.036;entryY=0.231;entryDx=0;entryDy=0;entryPerimeter=0;exitX=0.736;exitY=0.994;exitDx=0;exitDy=0;exitPerimeter=0;" edge="1" parent="1" source="qP-1R-feA82Y-g06vh5o-51" target="qP-1R-feA82Y-g06vh5o-71">
          <mxGeometry width="50" height="50" relative="1" as="geometry">
            <mxPoint x="331" y="220" as="sourcePoint" />
            <mxPoint x="-9" y="320" as="targetPoint" />
            <Array as="points">
              <mxPoint x="311" y="330" />
              <mxPoint x="441" y="330" />
              <mxPoint x="441" y="730" />
            </Array>
          </mxGeometry>
        </mxCell>
        <mxCell id="qP-1R-feA82Y-g06vh5o-112" value="" style="endArrow=classic;html=1;rounded=0;dashed=1;entryX=0.309;entryY=-0.017;entryDx=0;entryDy=0;entryPerimeter=0;" edge="1" parent="1" source="qP-1R-feA82Y-g06vh5o-51">
          <mxGeometry width="50" height="50" relative="1" as="geometry">
            <mxPoint x="364" y="102" as="sourcePoint" />
            <mxPoint x="623.72" y="303.13" as="targetPoint" />
            <Array as="points">
              <mxPoint x="364" y="120" />
              <mxPoint x="364" y="190" />
              <mxPoint x="624" y="190" />
            </Array>
          </mxGeometry>
        </mxCell>
        <mxCell id="qP-1R-feA82Y-g06vh5o-113" value="" style="endArrow=classic;html=1;rounded=0;dashed=1;exitX=0.036;exitY=0.999;exitDx=0;exitDy=0;exitPerimeter=0;" edge="1" parent="1">
          <mxGeometry width="50" height="50" relative="1" as="geometry">
            <mxPoint x="273.8799999999999" y="174.89" as="sourcePoint" />
            <mxPoint x="211" y="390" as="targetPoint" />
            <Array as="points">
              <mxPoint x="271" y="390" />
            </Array>
          </mxGeometry>
        </mxCell>
        <mxCell id="qP-1R-feA82Y-g06vh5o-114" value="" style="endArrow=classic;html=1;rounded=0;dashed=1;" edge="1" parent="1" source="qP-1R-feA82Y-g06vh5o-51" target="qP-1R-feA82Y-g06vh5o-59">
          <mxGeometry width="50" height="50" relative="1" as="geometry">
            <mxPoint x="-29" y="400" as="sourcePoint" />
            <mxPoint x="21" y="350" as="targetPoint" />
          </mxGeometry>
        </mxCell>
        <mxCell id="qP-1R-feA82Y-g06vh5o-115" value="" style="endArrow=classic;html=1;rounded=0;dashed=1;entryX=0;entryY=0.35;entryDx=0;entryDy=0;entryPerimeter=0;exitX=0.979;exitY=0.999;exitDx=0;exitDy=0;exitPerimeter=0;" edge="1" parent="1" source="qP-1R-feA82Y-g06vh5o-51" target="qP-1R-feA82Y-g06vh5o-69">
          <mxGeometry width="50" height="50" relative="1" as="geometry">
            <mxPoint x="357" y="220" as="sourcePoint" />
            <mxPoint x="706.94" y="459.46153846153857" as="targetPoint" />
            <Array as="points">
              <mxPoint x="331" y="280" />
              <mxPoint x="481" y="280" />
              <mxPoint x="481" y="450" />
            </Array>
          </mxGeometry>
        </mxCell>
        <mxCell id="qP-1R-feA82Y-g06vh5o-116" value="" style="endArrow=classic;html=1;rounded=0;dashed=1;" edge="1" parent="1" target="qP-1R-feA82Y-g06vh5o-61">
          <mxGeometry width="50" height="50" relative="1" as="geometry">
            <mxPoint x="251" y="130" as="sourcePoint" />
            <mxPoint x="41" y="370" as="targetPoint" />
            <Array as="points">
              <mxPoint x="181" y="130" />
              <mxPoint x="181" y="310" />
              <mxPoint x="41" y="310" />
              <mxPoint x="41" y="740" />
            </Array>
          </mxGeometry>
        </mxCell>
        <mxCell id="qP-1R-feA82Y-g06vh5o-117" value="Log &amp;amp; Metrics" style="text;html=1;align=center;verticalAlign=middle;whiteSpace=wrap;rounded=0;" vertex="1" parent="1">
          <mxGeometry x="271" y="353" width="90" height="30" as="geometry" />
        </mxCell>
        <mxCell id="qP-1R-feA82Y-g06vh5o-118" value="Log &amp;amp; Metrics" style="text;html=1;align=center;verticalAlign=middle;whiteSpace=wrap;rounded=0;" vertex="1" parent="1">
          <mxGeometry x="401" y="630" width="90" height="30" as="geometry" />
        </mxCell>
        <mxCell id="qP-1R-feA82Y-g06vh5o-119" value="Log &amp;amp; Metrics" style="text;html=1;align=center;verticalAlign=middle;whiteSpace=wrap;rounded=0;" vertex="1" parent="1">
          <mxGeometry x="375" y="273" width="90" height="30" as="geometry" />
        </mxCell>
        <mxCell id="qP-1R-feA82Y-g06vh5o-120" value="Log &amp;amp; Metrics" style="text;html=1;align=center;verticalAlign=middle;whiteSpace=wrap;rounded=0;" vertex="1" parent="1">
          <mxGeometry x="161" y="80" width="90" height="30" as="geometry" />
        </mxCell>
        <mxCell id="qP-1R-feA82Y-g06vh5o-121" value="Log &amp;amp; Metrics" style="text;html=1;align=center;verticalAlign=middle;whiteSpace=wrap;rounded=0;" vertex="1" parent="1">
          <mxGeometry x="531" y="165" width="90" height="30" as="geometry" />
        </mxCell>
      </root>
    </mxGraphModel>
  </diagram>
</mxfile>
